<svg width="21" height="21" viewBox="0 0 21 21" fill="none" xmlns="http://www.w3.org/2000/svg">
<path d="M18.22 4.50019H11.66C11.3948 4.50019 11.1404 4.60554 10.9529 4.79308C10.7654 4.98062 10.66 5.23497 10.66 5.50019C10.66 5.7654 10.7654 6.01976 10.9529 6.20729C11.1404 6.39483 11.3948 6.50019 11.66 6.50019H18.22C18.4269 6.50019 18.6253 6.58236 18.7715 6.72864C18.9178 6.87492 19 7.07332 19 7.28019V8.06019H15.22C14.9548 8.06019 14.7004 8.16554 14.5129 8.35308C14.3254 8.54061 14.22 8.79497 14.22 9.06019C14.22 9.3254 14.3254 9.57976 14.5129 9.76729C14.7004 9.95483 14.9548 10.0602 15.22 10.0602H17.59L16.89 10.7502C16.7963 10.8431 16.7219 10.9537 16.6711 11.0756C16.6203 11.1975 16.5942 11.3282 16.5942 11.4602C16.5942 11.5922 16.6203 11.7229 16.6711 11.8448C16.7219 11.9666 16.7963 12.0772 16.89 12.1702C16.983 12.2639 17.0936 12.3383 17.2154 12.3891C17.3373 12.4398 17.468 12.466 17.6 12.466C17.732 12.466 17.8627 12.4398 17.9846 12.3891C18.1064 12.3383 18.217 12.2639 18.31 12.1702L20.19 10.2902C20.4201 10.061 20.6035 9.78927 20.73 9.49018V9.39019C20.8958 9.05706 20.9879 8.69211 21 8.32019V7.32019C21.004 6.95212 20.9351 6.58691 20.7972 6.2456C20.6594 5.90428 20.4554 5.59361 20.197 5.33148C19.9386 5.06935 19.6309 4.86095 19.2916 4.71828C18.9523 4.5756 18.5881 4.50148 18.22 4.50019V4.50019ZM2.71 0.790185C2.61676 0.696947 2.50607 0.622986 2.38425 0.572526C2.26243 0.522065 2.13186 0.496094 2 0.496094C1.86814 0.496094 1.73758 0.522065 1.61575 0.572526C1.49393 0.622986 1.38324 0.696947 1.29 0.790185C1.1017 0.978489 0.995911 1.23388 0.995911 1.50019C0.995911 1.76649 1.1017 2.02188 1.29 2.21019L4.14 5.05019C3.78582 5.30395 3.49752 5.63879 3.29919 6.02674C3.10087 6.4147 2.99828 6.84448 3 7.28019V8.28019C3.00029 8.65981 3.08214 9.03494 3.24 9.38019V9.44018C3.36761 9.74166 3.5508 10.0164 3.78 10.2502L9.19 15.6502V19.5002C9.18966 19.6701 9.23264 19.8374 9.31487 19.9861C9.39711 20.1348 9.51589 20.2601 9.66 20.3502C9.81914 20.4488 10.0028 20.5008 10.19 20.5002C10.3465 20.4992 10.5007 20.4616 10.64 20.3902L14.2 18.6102C14.3649 18.5271 14.5036 18.3999 14.6007 18.2429C14.6978 18.0858 14.7494 17.9049 14.75 17.7202V15.7202L19.26 20.2402C19.353 20.3339 19.4636 20.4083 19.5854 20.4591C19.7073 20.5098 19.838 20.536 19.97 20.536C20.102 20.536 20.2327 20.5098 20.3546 20.4591C20.4764 20.4083 20.587 20.3339 20.68 20.2402C20.7737 20.1472 20.8481 20.0366 20.8989 19.9148C20.9497 19.7929 20.9758 19.6622 20.9758 19.5302C20.9758 19.3982 20.9497 19.2675 20.8989 19.1456C20.8481 19.0237 20.7737 18.9131 20.68 18.8202L2.71 0.790185ZM5 7.28019C4.99879 7.12323 5.04621 6.96976 5.13574 6.84084C5.22527 6.71192 5.35251 6.61388 5.5 6.56019L5.59 6.50019L7.15 8.06019H5V7.28019ZM13.07 14.5702C12.9773 14.6636 12.904 14.7744 12.8542 14.8963C12.8045 15.0181 12.7792 15.1486 12.78 15.2802V17.1002L11.22 17.8802V15.2802C11.2208 15.1486 11.1955 15.0181 11.1458 14.8963C11.096 14.7744 11.0227 14.6636 10.93 14.5702L6.41 10.0602H9.15L13.37 14.2802L13.07 14.5702Z" fill="#404A54"/>
</svg>
