<svg width="24" height="24" viewBox="0 0 24 24" fill="none" xmlns="http://www.w3.org/2000/svg">
<g clip-path="url(#clip0_85_1493)">
<path d="M15.1299 21.5C17.1306 20.8424 18.8726 19.57 20.1076 17.8641C21.3426 16.1582 22.0074 14.106 22.0074 12C22.0074 9.89402 21.3426 7.84179 20.1076 6.13592C18.8726 4.43004 17.1306 3.15759 15.1299 2.5M21.9999 12C22.0005 14.1051 21.3367 16.1566 20.1031 17.8624C18.8696 19.5681 17.1292 20.8411 15.1299 21.5C13.0976 22.1735 10.9023 22.1735 8.86993 21.5C6.86925 20.8424 5.12724 19.57 3.89228 17.8641C2.65731 16.1582 1.99243 14.106 1.99243 12C1.99243 9.89402 2.65731 7.84179 3.89228 6.13592C5.12724 4.43004 6.86925 3.15759 8.86993 2.5C10.9023 1.8265 13.0976 1.8265 15.1299 2.5C17.1292 3.15888 18.8696 4.43188 20.1031 6.13765C21.3367 7.84341 22.0005 9.89495 21.9999 12V12Z" stroke="#EF835D" stroke-width="2" stroke-linecap="round" stroke-linejoin="round"/>
<path d="M12 2.5V21.5" stroke="#EF835D" stroke-width="2" stroke-linecap="round" stroke-linejoin="round"/>
<path d="M4.38989 5.5C5.3218 5.97086 6.29613 6.35255 7.29989 6.64C8.82618 7.08933 10.4088 7.31831 11.9999 7.32C13.5471 7.31918 15.0868 7.1038 16.5749 6.68C17.6101 6.38071 18.6146 5.98394 19.5749 5.495M4.55489 18.675C5.473 18.2239 6.43029 17.8574 7.41489 17.58C11.4151 16.4599 15.688 16.8552 19.4149 18.69" stroke="#EF835D" stroke-width="2" stroke-linecap="round" stroke-linejoin="round"/>
<path d="M2.5 12H21.5" stroke="#EF835D" stroke-width="2" stroke-linecap="round" stroke-linejoin="round"/>
<path d="M14.7448 2.5L14.8248 2.64C16.4813 5.46484 17.3545 8.68031 17.3545 11.955C17.3545 15.2297 16.4813 18.4452 14.8248 21.27V21.27M9.12481 2.5L9.04481 2.64C7.39012 5.46638 6.52004 8.68328 6.52443 11.9584C6.52883 15.2335 7.40754 18.4481 9.06981 21.27V21.27" stroke="#EF835D" stroke-width="2" stroke-linecap="round" stroke-linejoin="round"/>
</g>
<defs>
<clipPath id="clip0_85_1493">
<rect width="24" height="24" fill="white"/>
</clipPath>
</defs>
</svg>
