<svg width="30" height="30" viewBox="0 0 30 30" fill="none" xmlns="http://www.w3.org/2000/svg">
<g clip-path="url(#clip0_85_1508)">
<path d="M23.6019 0H6.39813C2.86454 0 0 2.86454 0 6.39813V23.6019C0 27.1355 2.86454 30 6.39813 30H23.6019C27.1355 30 30 27.1355 30 23.6019V6.39813C30 2.86454 27.1355 0 23.6019 0Z" fill="#0A93E2"/>
<path fill-rule="evenodd" clip-rule="evenodd" d="M24.1246 10.4497C23.4669 10.7409 22.7692 10.932 22.0549 11.0166C22.8019 10.5684 23.3732 9.86087 23.6369 9.02156C22.9302 9.44038 22.1575 9.73608 21.3518 9.89603C20.8581 9.36603 20.2161 8.99713 19.5096 8.83744C18.8031 8.67775 18.0649 8.73469 17.3912 9.00084C16.7176 9.26698 16.1397 9.72997 15.7332 10.3294C15.3266 10.9289 15.1101 11.6369 15.1119 12.3612C15.111 12.6378 15.142 12.9135 15.2042 13.183C13.7708 13.1111 12.3686 12.7387 11.0884 12.0899C9.80831 11.4411 8.67886 10.5305 7.77338 9.41705C7.31018 10.2108 7.16776 11.1515 7.37524 12.0467C7.58272 12.942 8.12442 13.7242 8.88953 14.2332C8.31628 14.2153 7.7557 14.06 7.25485 13.7806V13.8245C7.25485 15.5735 8.49844 17.0324 10.1463 17.362C9.61619 17.5066 9.05994 17.5277 8.52041 17.4235C8.75085 18.1395 9.19905 18.7657 9.80248 19.2147C10.4059 19.6637 11.1344 19.9132 11.8865 19.9283C11.1385 20.5162 10.2819 20.9508 9.36575 21.2071C8.44958 21.4635 7.49183 21.5366 6.54736 21.4223C8.1425 22.4462 10.0365 23.0394 12.0754 23.0394C18.7108 23.0394 22.3361 17.5465 22.3361 12.7787C22.3361 12.6249 22.3361 12.4711 22.3274 12.3129C23.0304 11.8076 23.6457 11.1704 24.129 10.4497H24.1246Z" fill="white"/>
</g>
<defs>
<clipPath id="clip0_85_1508">
<rect width="30" height="30" fill="white"/>
</clipPath>
</defs>
</svg>
