<svg width="19" height="20" viewBox="0 0 19 20" fill="none" xmlns="http://www.w3.org/2000/svg">
<path fill-rule="evenodd" clip-rule="evenodd" d="M7.84992 8.35041C8.28751 7.91283 8.881 7.66699 9.49984 7.66699C10.1187 7.66699 10.7122 7.91283 11.1498 8.35041C11.5873 8.78799 11.8332 9.38149 11.8332 10.0003C11.8332 10.6192 11.5873 11.2127 11.1498 11.6502C10.7122 12.0878 10.1187 12.3337 9.49984 12.3337C8.881 12.3337 8.28751 12.0878 7.84992 11.6502C7.41234 11.2127 7.1665 10.6192 7.1665 10.0003C7.1665 9.38149 7.41234 8.78799 7.84992 8.35041ZM9.49984 9.16699C9.27882 9.16699 9.06686 9.25479 8.91058 9.41107C8.7543 9.56735 8.6665 9.77931 8.6665 10.0003C8.6665 10.2213 8.7543 10.4333 8.91058 10.5896C9.06686 10.7459 9.27882 10.8337 9.49984 10.8337C9.72085 10.8337 9.93281 10.7459 10.0891 10.5896C10.2454 10.4333 10.3332 10.2213 10.3332 10.0003C10.3332 9.77931 10.2454 9.56735 10.0891 9.41107C9.93281 9.25479 9.72085 9.16699 9.49984 9.16699Z" fill="#EF835D"/>
<path fill-rule="evenodd" clip-rule="evenodd" d="M3.30563 10.0451C3.97833 11.0065 4.8481 11.9385 5.83552 12.6563C6.9765 13.4857 8.23249 14 9.5 14C10.7675 14 12.0235 13.4857 13.1645 12.6563C14.1519 11.9385 15.0217 11.0065 15.6944 10.0451C13.937 7.90696 12.09 6 9.5 6C6.90996 6 5.06305 7.90696 3.30563 10.0451ZM1.7919 9.52831C3.56796 7.33276 5.91525 4.5 9.5 4.5C13.0848 4.5 15.432 7.33276 17.2081 9.52831C17.4102 9.7781 17.4307 10.1288 17.2591 10.4005C16.4677 11.6535 15.3598 12.9149 14.0465 13.8696C12.7347 14.8232 11.1759 15.5 9.5 15.5C7.8241 15.5 6.26532 14.8232 4.95352 13.8696C3.64024 12.9149 2.53227 11.6535 1.74088 10.4005C1.56932 10.1288 1.58984 9.7781 1.7919 9.52831Z" fill="#EF835D"/>
</svg>
