<svg width="17" height="17" viewBox="0 0 17 17" fill="none" xmlns="http://www.w3.org/2000/svg">
<path fill-rule="evenodd" clip-rule="evenodd" d="M3.69362 15.2212C4.7821 15.9485 6.02287 16.4057 7.31329 16.5617C7.86159 16.628 8.31091 16.1741 8.31091 15.6218L8.31091 8.31091L2.43421 2.43421C1.27191 3.59651 0.480371 5.07737 0.159692 6.68953C-0.160986 8.30169 0.00359682 9.97274 0.63263 11.4914C1.26166 13.01 2.32689 14.308 3.69362 15.2212Z" fill="#FFCD2D"/>
<path d="M6.68953 0.159691C5.07738 0.48037 3.59651 1.27191 2.43421 2.43421L8.31091 8.31091L15.6218 8.31091C16.1741 8.31091 16.628 7.86159 16.5617 7.31329C16.4057 6.02287 15.9485 4.7821 15.2212 3.69362C14.308 2.32689 13.01 1.26166 11.4914 0.63263C9.97274 0.00359703 8.30169 -0.160987 6.68953 0.159691Z" fill="#15C847"/>
<path d="M6.68953 0.159691C5.07738 0.48037 3.59651 1.27191 2.43421 2.43421L8.31091 8.31091L15.6218 8.31091C16.1741 8.31091 16.628 7.86159 16.5617 7.31329C16.4057 6.02287 15.9485 4.7821 15.2212 3.69362C14.308 2.32689 13.01 1.26166 11.4914 0.63263C9.97274 0.00359703 8.30169 -0.160987 6.68953 0.159691Z" fill="black" fill-opacity="0.2"/>
</svg>
