<svg width="70" height="70" viewBox="0 0 70 70" fill="none" xmlns="http://www.w3.org/2000/svg">
<path d="M30.778 12.2609V22.9688C30.778 23.2588 30.6628 23.537 30.4577 23.7421C30.2526 23.9473 29.9744 24.0625 29.6843 24.0625H22.028L30.778 12.2609ZM13.7593 53.0578C13.4692 53.0578 13.191 52.9426 12.9859 52.7375C12.7808 52.5323 12.6655 52.2541 12.6655 51.9641V41.0266C12.6655 40.7365 12.7808 40.4583 12.9859 40.2532C13.191 40.048 13.4692 39.9328 13.7593 39.9328H43.6405C43.9306 39.9328 44.2088 40.048 44.4139 40.2532C44.619 40.4583 44.7343 40.7365 44.7343 41.0266V51.9641C44.7343 52.2541 44.619 52.5323 44.4139 52.7375C44.2088 52.9426 43.9306 53.0578 43.6405 53.0578H13.7593ZM57.3343 58.8984C57.3343 59.1885 57.219 59.4667 57.0139 59.6718C56.8088 59.877 56.5306 59.9922 56.2405 59.9922H22.028C21.7379 59.9922 21.4597 59.877 21.2546 59.6718C21.0495 59.4667 20.9343 59.1885 20.9343 58.8984V55.2453H43.6405C44.5108 55.2453 45.3454 54.8996 45.9607 54.2843C46.5761 53.6689 46.9218 52.8343 46.9218 51.9641V41.0266C46.9218 40.1563 46.5761 39.3217 45.9607 38.7064C45.3454 38.091 44.5108 37.7453 43.6405 37.7453H20.9343V26.25H29.6843C30.5545 26.25 31.3891 25.9043 32.0045 25.2889C32.6198 24.6736 32.9655 23.839 32.9655 22.9688V10.0078H56.2405C56.5306 10.0078 56.8088 10.123 57.0139 10.3282C57.219 10.5333 57.3343 10.8115 57.3343 11.1016V58.8984Z" fill="#15C847"/>
<path d="M30.778 12.2609V22.9688C30.778 23.2588 30.6628 23.537 30.4577 23.7421C30.2526 23.9473 29.9744 24.0625 29.6843 24.0625H22.028L30.778 12.2609ZM13.7593 53.0578C13.4692 53.0578 13.191 52.9426 12.9859 52.7375C12.7808 52.5323 12.6655 52.2541 12.6655 51.9641V41.0266C12.6655 40.7365 12.7808 40.4583 12.9859 40.2532C13.191 40.048 13.4692 39.9328 13.7593 39.9328H43.6405C43.9306 39.9328 44.2088 40.048 44.4139 40.2532C44.619 40.4583 44.7343 40.7365 44.7343 41.0266V51.9641C44.7343 52.2541 44.619 52.5323 44.4139 52.7375C44.2088 52.9426 43.9306 53.0578 43.6405 53.0578H13.7593ZM57.3343 58.8984C57.3343 59.1885 57.219 59.4667 57.0139 59.6718C56.8088 59.877 56.5306 59.9922 56.2405 59.9922H22.028C21.7379 59.9922 21.4597 59.877 21.2546 59.6718C21.0495 59.4667 20.9343 59.1885 20.9343 58.8984V55.2453H43.6405C44.5108 55.2453 45.3454 54.8996 45.9607 54.2843C46.5761 53.6689 46.9218 52.8343 46.9218 51.9641V41.0266C46.9218 40.1563 46.5761 39.3217 45.9607 38.7064C45.3454 38.091 44.5108 37.7453 43.6405 37.7453H20.9343V26.25H29.6843C30.5545 26.25 31.3891 25.9043 32.0045 25.2889C32.6198 24.6736 32.9655 23.839 32.9655 22.9688V10.0078H56.2405C56.5306 10.0078 56.8088 10.123 57.0139 10.3282C57.219 10.5333 57.3343 10.8115 57.3343 11.1016V58.8984Z" fill="black" fill-opacity="0.2"/>
<path d="M22.6844 47.3594V49.7219H20.7812V43.2359H23.4062C23.9172 43.2084 24.4281 43.2904 24.9047 43.4765C25.2439 43.6302 25.5295 43.8815 25.725 44.1984C25.9228 44.5286 26.0251 44.9073 26.0203 45.2922C26.0331 45.5714 25.985 45.8501 25.8792 46.1089C25.7735 46.3677 25.6126 46.6003 25.4078 46.7906C24.9519 47.1872 24.3597 47.3911 23.7562 47.3594H22.6844ZM22.6844 45.9703H23.3187C23.8766 45.9703 24.15 45.7515 24.15 45.325C24.15 44.8984 23.8984 44.7125 23.3844 44.7125H22.6844V45.9703ZM26.7312 49.7219V43.2359H29.1266C29.5631 43.2031 30.0012 43.273 30.4058 43.4402C30.8104 43.6073 31.1702 43.867 31.4562 44.1984C31.9716 44.8308 32.2467 45.625 32.2328 46.4406C32.279 47.307 31.9801 48.1565 31.4016 48.8031C31.1269 49.1077 30.7885 49.3479 30.4104 49.5067C30.0323 49.6655 29.6238 49.739 29.2141 49.7219H26.7312ZM28.6344 48.2234H29.1266C29.2902 48.2206 29.4503 48.1746 29.5905 48.0901C29.7307 48.0056 29.8461 47.8856 29.925 47.7422C30.1541 47.348 30.2643 46.896 30.2422 46.4406C30.2508 46.015 30.153 45.5939 29.9578 45.2156C29.8812 45.0616 29.7623 44.9326 29.6152 44.8435C29.468 44.7544 29.2985 44.709 29.1266 44.7125H28.6344V48.2234ZM36.9031 47.2937H34.8906V49.7219H33.0422V43.2359H37.5156V44.7781H34.8906V45.8719H36.9031V47.2937Z" fill="white"/>
</svg>
