<svg width="100" height="100" viewBox="0 0 100 100" fill="none" xmlns="http://www.w3.org/2000/svg">
<path d="M50 78.125C44.4374 78.125 38.9997 76.4755 34.3746 73.3851C29.7495 70.2947 26.1446 65.9022 24.0159 60.763C21.8872 55.6238 21.3302 49.9688 22.4154 44.5131C23.5006 39.0574 26.1793 34.046 30.1126 30.1126C34.046 26.1793 39.0574 23.5006 44.5131 22.4154C49.9688 21.3302 55.6238 21.8872 60.763 24.0159C65.9022 26.1446 70.2947 29.7495 73.3851 34.3746C76.4755 38.9997 78.125 44.4374 78.125 50C78.1162 57.4565 75.1502 64.6051 69.8776 69.8776C64.6051 75.1502 57.4565 78.1162 50 78.125ZM50 28.125C45.6735 28.125 41.4442 29.408 37.8469 31.8116C34.2496 34.2153 31.4458 37.6317 29.7901 41.6288C28.1345 45.6259 27.7013 50.0243 28.5453 54.2676C29.3894 58.5109 31.4728 62.4087 34.5321 65.468C37.5913 68.5272 41.4891 70.6106 45.7324 71.4547C49.9757 72.2987 54.3741 71.8655 58.3712 70.2099C62.3683 68.5542 65.7848 65.7504 68.1884 62.1531C70.5921 58.5558 71.875 54.3265 71.875 50C71.8684 44.2004 69.5616 38.6403 65.4607 34.5394C61.3597 30.4384 55.7996 28.1316 50 28.125Z" fill="#15C847"/>
<path d="M50 78.125C44.4374 78.125 38.9997 76.4755 34.3746 73.3851C29.7495 70.2947 26.1446 65.9022 24.0159 60.763C21.8872 55.6238 21.3302 49.9688 22.4154 44.5131C23.5006 39.0574 26.1793 34.046 30.1126 30.1126C34.046 26.1793 39.0574 23.5006 44.5131 22.4154C49.9688 21.3302 55.6238 21.8872 60.763 24.0159C65.9022 26.1446 70.2947 29.7495 73.3851 34.3746C76.4755 38.9997 78.125 44.4374 78.125 50C78.1162 57.4565 75.1502 64.6051 69.8776 69.8776C64.6051 75.1502 57.4565 78.1162 50 78.125ZM50 28.125C45.6735 28.125 41.4442 29.408 37.8469 31.8116C34.2496 34.2153 31.4458 37.6317 29.7901 41.6288C28.1345 45.6259 27.7013 50.0243 28.5453 54.2676C29.3894 58.5109 31.4728 62.4087 34.5321 65.468C37.5913 68.5272 41.4891 70.6106 45.7324 71.4547C49.9757 72.2987 54.3741 71.8655 58.3712 70.2099C62.3683 68.5542 65.7848 65.7504 68.1884 62.1531C70.5921 58.5558 71.875 54.3265 71.875 50C71.8684 44.2004 69.5616 38.6403 65.4607 34.5394C61.3597 30.4384 55.7996 28.1316 50 28.125Z" fill="black" fill-opacity="0.2"/>
<path d="M58.3333 53.125H50C49.1712 53.125 48.3763 52.7958 47.7903 52.2097C47.2042 51.6237 46.875 50.8288 46.875 50V37.5C46.875 36.6712 47.2042 35.8763 47.7903 35.2903C48.3763 34.7042 49.1712 34.375 50 34.375C50.8288 34.375 51.6237 34.7042 52.2097 35.2903C52.7958 35.8763 53.125 36.6712 53.125 37.5V46.875H58.3333C59.1621 46.875 59.957 47.2042 60.543 47.7903C61.1291 48.3763 61.4583 49.1712 61.4583 50C61.4583 50.8288 61.1291 51.6237 60.543 52.2097C59.957 52.7958 59.1621 53.125 58.3333 53.125Z" fill="#15C847"/>
<path d="M58.3333 53.125H50C49.1712 53.125 48.3763 52.7958 47.7903 52.2097C47.2042 51.6237 46.875 50.8288 46.875 50V37.5C46.875 36.6712 47.2042 35.8763 47.7903 35.2903C48.3763 34.7042 49.1712 34.375 50 34.375C50.8288 34.375 51.6237 34.7042 52.2097 35.2903C52.7958 35.8763 53.125 36.6712 53.125 37.5V46.875H58.3333C59.1621 46.875 59.957 47.2042 60.543 47.7903C61.1291 48.3763 61.4583 49.1712 61.4583 50C61.4583 50.8288 61.1291 51.6237 60.543 52.2097C59.957 52.7958 59.1621 53.125 58.3333 53.125Z" fill="black" fill-opacity="0.2"/>
<path d="M91.6668 53.1241C90.838 53.1241 90.0432 52.7948 89.4571 52.2088C88.8711 51.6227 88.5418 50.8279 88.5418 49.9991C88.5423 42.3759 86.2821 34.9238 82.0471 28.5853C77.8121 22.2468 71.7926 17.3064 64.7497 14.3891C57.7069 11.4718 49.9571 10.7086 42.4805 12.1959C35.0038 13.6832 28.1362 17.3543 22.746 22.7449C21.4539 24.0388 20.2538 25.4213 19.1543 26.8824C18.657 27.5454 17.9167 27.9838 17.0963 28.101C16.2758 28.2182 15.4424 28.0047 14.7793 27.5074C14.1163 27.0101 13.6779 26.2698 13.5607 25.4493C13.4435 24.6289 13.657 23.7954 14.1543 23.1324C15.4332 21.4427 16.8253 19.8418 18.321 18.3407C24.584 12.0751 32.5644 7.80734 41.253 6.07727C49.9415 4.34721 58.948 5.2325 67.1334 8.62119C75.3188 12.0099 82.3155 17.7498 87.2386 25.115C92.1618 32.4802 94.7903 41.1399 94.7918 49.9991C94.7918 50.8279 94.4626 51.6227 93.8765 52.2088C93.2905 52.7948 92.4956 53.1241 91.6668 53.1241ZM50.0002 94.7907C44.1177 94.7918 38.2927 93.634 32.8578 91.3834C27.423 89.1328 22.4847 85.8335 18.3252 81.674C14.1657 77.5145 10.8664 72.5762 8.61583 67.1414C6.36523 61.7065 5.2074 55.8815 5.2085 49.9991C5.2085 49.1702 5.53774 48.3754 6.12379 47.7893C6.70984 47.2033 7.5047 46.8741 8.3335 46.8741C9.1623 46.8741 9.95715 47.2033 10.5432 47.7893C11.1293 48.3754 11.4585 49.1702 11.4585 49.9991C11.4581 57.6222 13.7183 65.0742 17.9532 71.4128C22.1882 77.7513 28.2078 82.6917 35.2506 85.609C42.2934 88.5263 50.0432 89.2895 57.5199 87.8022C64.9965 86.3149 71.8642 82.6438 77.2543 77.2532C78.5458 75.9614 79.7446 74.5802 80.8418 73.1199C81.3555 72.504 82.086 72.1088 82.8825 72.0159C83.6791 71.923 84.4809 72.1395 85.1225 72.6207C85.764 73.1019 86.1964 73.811 86.3302 74.6017C86.4641 75.3924 86.2893 76.2043 85.8418 76.8699C84.5646 78.5622 83.1725 80.1646 81.6752 81.6657C77.5251 85.8386 72.5889 89.1472 67.1519 91.4C61.715 93.6529 55.8853 94.8053 50.0002 94.7907Z" fill="#EF835D"/>
<path d="M85.8333 88.9583C85.0045 88.9583 84.2097 88.6291 83.6236 88.043C83.0376 87.457 82.7083 86.6621 82.7083 85.8333V77.175H74.0458C73.217 77.175 72.4222 76.8458 71.8361 76.2597C71.2501 75.6737 70.9208 74.8788 70.9208 74.05C70.9208 73.2212 71.2501 72.4263 71.8361 71.8403C72.4222 71.2542 73.217 70.925 74.0458 70.925H85.8333C86.6621 70.925 87.457 71.2542 88.043 71.8403C88.6291 72.4263 88.9583 73.2212 88.9583 74.05V85.8333C88.9583 86.6621 88.6291 87.457 88.043 88.043C87.457 88.6291 86.6621 88.9583 85.8333 88.9583ZM26.9083 30.0333H15.125C14.2962 30.0333 13.5013 29.7041 12.9153 29.118C12.3292 28.532 12 27.7371 12 26.9083V15.125C12 14.2962 12.3292 13.5013 12.9153 12.9153C13.5013 12.3292 14.2962 12 15.125 12C15.9538 12 16.7487 12.3292 17.3347 12.9153C17.9208 13.5013 18.25 14.2962 18.25 15.125V23.7833H26.9083C27.7371 23.7833 28.532 24.1126 29.118 24.6986C29.7041 25.2847 30.0333 26.0795 30.0333 26.9083C30.0333 27.7371 29.7041 28.532 29.118 29.118C28.532 29.7041 27.7371 30.0333 26.9083 30.0333Z" fill="#EF835D"/>
</svg>
